<svg width="374" height="282" viewBox="0 0 374 282" fill="none" xmlns="http://www.w3.org/2000/svg">
<path opacity="0.95" d="M219.195 129.18H146.104C140.33 129.18 135.648 124.71 135.648 119.195V49.398C135.648 43.8839 140.33 39.4135 146.104 39.4135H219.195C224.97 39.4135 229.651 43.8839 229.651 49.398V119.195C229.651 124.71 224.97 129.18 219.195 129.18Z" fill="url(#paint0_linear_2004_3)"/>
<path d="M204.411 108.913H160.889V110.966H204.411V108.913Z" fill="#96BFE6"/>
<path d="M198.246 115.382H167.053V117.435H198.246V115.382Z" fill="#96BFE6"/>
<path opacity="0.95" d="M361.452 214.921H257.433C250.63 214.921 245.116 209.655 245.116 203.159V82.4792C245.116 75.9829 250.63 70.7169 257.433 70.7169H361.452C368.255 70.7169 373.77 75.9829 373.77 82.4792V203.159C373.77 209.655 368.255 214.921 361.452 214.921Z" fill="url(#paint1_linear_2004_3)"/>
<path d="M313.652 155.788H303.448V157.593H313.652V155.788Z" fill="#4598E6"/>
<path d="M324.084 172.325H264.709V175.818H324.084V172.325Z" fill="#96BFE6"/>
<path d="M312.723 189.099H264.709V192.593H312.723V189.099Z" fill="#96BFE6"/>
<path d="M292.857 180.712H264.709V184.206H292.857V180.712Z" fill="#96BFE6"/>
<path d="M339.618 85.0974V86.862H350.499V96.6132H352.346V85.0974H339.618ZM265.731 96.6132H267.579V86.862H278.46V85.0974H265.731V96.6132ZM350.499 146.93V156.684H339.618V158.449H352.346V146.93H350.499V146.93ZM267.579 146.93H265.731V158.449H278.46V156.685H267.579V146.93Z" fill="#4598E6"/>
<path d="M346.586 192.85C340.586 192.85 335.704 188.188 335.704 182.459C335.704 176.729 340.586 172.068 346.586 172.068C352.586 172.068 357.467 176.729 357.467 182.459C357.467 188.188 352.586 192.85 346.586 192.85ZM346.586 174.079C341.747 174.079 337.811 177.838 337.811 182.459C337.811 187.08 341.747 190.839 346.586 190.839C351.424 190.839 355.361 187.08 355.361 182.459C355.361 177.838 351.424 174.079 346.586 174.079Z" fill="#4598E6"/>
<path d="M345.892 186.549L340.948 181.828L342.437 180.406L345.892 183.704L350.734 179.08L352.223 180.502L345.892 186.549Z" fill="#4598E6"/>
<path d="M353.13 273.887C353.13 278.246 274.079 281.779 176.565 281.779C79.0507 281.779 0 278.246 0 273.887C0 269.529 79.0507 265.996 176.565 265.996C274.079 265.996 353.13 269.529 353.13 273.887Z" fill="url(#paint2_linear_2004_3)"/>
<path opacity="0.95" d="M214.33 42.9401H150.969V94.8535H214.33V42.9401Z" fill="url(#paint3_linear_2004_3)"/>
<path d="M206.852 74.5432C204.765 69.2718 199.752 66.8516 197.385 66.0971C196.543 65.8299 195.037 65.3607 193.451 64.8706C190.594 63.9887 187.471 63.0295 187.471 63.0295H177.609C177.609 63.0295 174.195 64.1225 170.566 65.3371C170.566 65.3401 170.562 65.3401 170.562 65.3401C167.219 66.4596 163.699 67.6804 162.511 68.2506C160.032 69.4324 155.862 77.8814 155.019 78.8496C154.584 79.3486 152.649 82.6391 150.746 86.3156H161.369C162.492 84.4744 163.356 83.0458 163.356 83.0458C163.356 83.0458 164.028 84.4536 164.843 86.3156H198.878C199.416 84.1536 199.752 81.4303 199.752 81.4303C199.752 81.4303 201.575 83.7972 203.565 86.3156H213.374C210.988 82.4932 208.027 77.5187 206.852 74.5432Z" fill="#385369"/>
<path d="M183.715 37.1522C183.715 37.1522 191.426 38.3122 190.252 49.8327C189.078 61.3532 182.272 60.409 181.817 60.3972C181.362 60.3857 174.985 60.6073 174.488 46.5415C174.488 46.5415 174.271 36.1403 183.715 37.1522Z" fill="#EEA886"/>
<path d="M190.371 46.5784C190.371 46.5784 191.215 45.7172 191.525 46.5891C191.835 47.4609 190.373 51.3497 190.321 51.5314C190.321 51.5314 190.167 51.8696 189.964 51.6836C189.761 51.4974 190.371 46.5784 190.371 46.5784Z" fill="#EEA886"/>
<path d="M174.696 46.4328C174.696 46.4328 173.87 45.5562 173.542 46.4221C173.215 47.2881 174.585 51.2024 174.646 51.3859C174.646 51.3859 174.793 51.7267 175 51.5445C175.206 51.362 174.696 46.4328 174.696 46.4328Z" fill="#EEA886"/>
<path d="M190.368 48.3454L189.264 49.7547C189.264 49.7547 189.295 46.665 189.118 46.1805C188.941 45.6961 188.67 44.216 188.522 43.867C188.373 43.5181 181.9 41.7856 176.182 44.3729C176.182 44.3729 176.434 46.5947 175.885 46.7924C175.338 46.99 175.606 50.4109 175.606 50.4109L174.699 49.4329C174.699 49.4329 173.309 40.5695 173.652 39.6457C173.995 38.7218 175.089 33.1676 186.82 36.4648C186.82 36.4648 190.477 35.7252 191.211 38.1363C191.945 40.5473 190.368 48.3454 190.368 48.3454Z" fill="#434343"/>
<path d="M188.427 62.8215C188.424 62.8111 187.438 62.3574 187.438 62.3574C186.958 61.3317 187.314 57.0039 187.314 57.0039C187.314 57.0039 177.494 54.6171 177.774 56.4421C178.054 58.2672 176.928 62.5077 176.928 62.5077L171.89 64.8966C171.89 64.8966 177.258 78.6602 183.427 76.8845C189.597 75.1092 191.926 64.4003 191.926 64.4003L188.427 62.8215Z" fill="#EEA886"/>
<path d="M177.915 58.4696C177.915 58.4696 179.497 60.4203 182.244 60.4203C184.05 60.4203 185.347 59.9366 187.147 58.261C187.147 58.261 186.367 61.4433 182.256 61.7394C182.256 61.7394 179.275 62.1012 177.915 58.4696Z" fill="#A77860"/>
<path d="M149.563 104.685C149.563 104.685 155.229 107.332 153.828 114.532C152.428 121.732 151.808 122.702 153.375 125.516C154.942 128.329 156.791 140.33 155.381 142.605C153.97 144.879 137.923 132.609 135.698 122.313C133.473 112.017 137.109 107.438 138.393 105.732C139.678 104.026 144.561 102.261 149.563 104.685Z" fill="#0E2D3D"/>
<path d="M147.425 271.784H148.709V266C148.709 266 151.228 267.604 152.808 269.82C154.389 272.037 156.562 271.848 159.871 271.707C163.18 271.565 163.032 270.292 162.736 268.5C162.44 266.707 159.081 266.142 157.994 265.858C156.908 265.575 154.441 261.517 153.648 260.529C152.566 259.181 151.994 257.888 151.994 257.888C151.994 257.888 151.376 255.482 148.314 257.888C145.252 260.293 146.141 264.915 146.487 265.34C146.832 265.764 147.425 271.784 147.425 271.784Z" fill="#163342"/>
<path d="M153.896 265.859C155.031 266.566 157.995 265.859 157.995 265.859C157.155 264.821 151.994 257.888 151.994 257.888C148.858 256.143 147.618 258.545 147.618 258.545C148.898 258.918 152.76 265.151 153.896 265.859Z" fill="#EEA886"/>
<path d="M186.919 159.167C186.919 159.167 188.975 159.543 189.678 158.62C190.275 157.836 191.641 157.233 192.061 157.047C192.623 156.798 194.049 155.421 194.385 156.094C194.72 156.768 192.148 158.473 191.683 158.934C191.219 159.394 194.206 159.598 194.721 160.046C195.237 160.494 194.603 165.199 192.569 164.833C190.536 164.467 188.617 162.794 188.246 162.797C187.875 162.8 186.756 162.586 186.756 162.586L186.919 159.167Z" fill="#EEA886"/>
<path d="M194.267 159.853C194.267 159.853 200.414 161.37 200.735 161.798C201.056 162.227 200.95 162.54 200.369 162.421C199.788 162.302 194.386 161.12 194.386 161.12C194.386 161.12 201.345 164.082 201.689 164.378C201.89 164.552 201.723 165.17 201.406 165.134C201.089 165.098 194.015 162.538 194.015 162.538C194.015 162.538 200.508 165.315 200.717 165.645C200.901 165.933 200.599 166.464 200.103 166.289C199.606 166.115 193.428 163.862 193.428 163.862C193.428 163.862 198.02 166.167 198.026 166.546C198.029 166.778 197.911 167.318 196.745 166.688C195.579 166.058 192.666 164.847 192.666 164.847L194.267 159.853Z" fill="#EEA886"/>
<path d="M130.786 272.179H131.576V267.934C131.576 267.934 132.981 269.315 133.623 271.343C134.266 273.371 136.564 273.972 140.071 273.878C143.578 273.784 143.627 272.462 143.331 270.481C143.035 268.5 140.071 267.462 140.071 267.462C138.738 266.33 135.428 261.638 135.428 261.638C135.428 261.638 133.305 261.095 131.638 262.38C129.971 263.665 130.489 266.566 130.539 267.321C130.588 268.076 130.786 272.179 130.786 272.179Z" fill="#163342"/>
<path d="M133.206 171.059C133.206 171.059 129.027 176.247 127.894 182.402C126.761 188.557 128.563 209.215 128.514 212.257C128.465 215.299 125.501 222.869 126.094 228.599C126.687 234.33 129.026 262.851 129.026 262.851L135.429 261.638C135.429 261.638 135.058 232.561 135.429 230.156C135.799 227.75 136.543 218.983 136.691 217.992C136.839 217.002 146.097 190.994 146.097 186.557C146.097 182.119 143.282 163.819 133.206 171.059Z" fill="#1D3B54"/>
<path d="M154.197 173.087C154.197 173.087 161.062 198.108 161.877 201.574C162.692 205.041 163.872 207.9 163.872 209.372C163.872 212.787 162.544 218.27 162.544 218.27L153.826 258.085H145.523C145.523 258.085 150.149 234.199 150.274 229.528C150.399 224.847 154.172 218.2 153.431 216.218C152.69 214.238 141.504 191.387 141.504 191.387C141.504 191.387 133.033 165.824 154.197 173.087Z" fill="#1D3B54"/>
<path d="M140.071 267.462L135.429 261.638L131.638 262.38C131.638 262.38 132.658 264.987 134.501 266.948C136.683 269.271 140.071 267.462 140.071 267.462Z" fill="#EEA886"/>
<path d="M151.362 130.568C151.362 130.568 154.192 130.823 156.331 133.011C158.47 135.199 160.477 138.688 161.037 139.855C161.597 141.022 169.449 151.838 169.856 152.081C170.264 152.324 174.211 153.583 176.826 154.424C180.861 155.721 188.951 158.528 188.951 158.528L187.344 163.386C187.344 163.386 172.133 158.632 168.323 157.736C163.665 156.64 152.94 143.502 152.94 143.502C152.94 143.502 144.946 134.555 151.362 130.568Z" fill="#285173"/>
<path d="M146.422 128.671C146.422 128.671 150.088 130.325 151.361 130.568C152.634 130.811 157.574 136.938 158.439 139.175C159.305 141.411 158.439 144.767 156.657 148.705C154.875 152.644 156.555 153.957 155.74 157.896C154.926 161.835 155.188 176.569 155.34 178.758C155.493 180.946 131.506 184.263 126.77 180.275C126.77 180.275 129.976 166.996 133.772 163.205C134.593 162.386 134.506 156.923 133.946 155.562C133.386 154.2 127.072 144.037 127.072 144.037C127.072 144.037 126.608 133.73 129.363 131.686C131.756 129.911 138.279 129.279 139.45 128.889C140.622 128.501 144.028 128.331 146.422 128.671Z" fill="#FFBF55"/>
<path d="M148.173 124.631C148.173 124.631 148.063 125.595 147.937 126.898C147.888 127.413 147.834 127.982 147.786 128.565C147.64 130.312 147.523 132.186 147.594 133.145C147.594 133.145 143.783 136.792 139.451 128.89C139.451 128.89 141.273 125.632 139.901 121.196C138.529 116.758 148.173 124.631 148.173 124.631Z" fill="#EEA886"/>
<path d="M158.836 150.158C158.836 150.158 159.753 144.333 158.778 140.791C158.778 140.791 158.778 143.837 157.029 148.162L158.836 150.158Z" fill="#183C59"/>
<path d="M136.524 129.451C136.524 129.451 139.145 136.842 146.34 136.298C153.535 135.755 149.751 130.057 149.751 130.057C149.751 130.057 147.958 129.075 147.453 128.982C146.948 128.89 139.498 128.8 139.498 128.8L136.524 129.451Z" fill="#EEA886"/>
<path d="M149.751 130.057C149.751 130.057 153.519 140.012 153.519 150.158C153.519 160.303 153.823 176.831 155.139 182.05C156.454 187.269 160.199 203.41 160.199 203.41L163.134 201.96C163.134 201.96 156.076 176.2 155.543 174.343C155.011 172.485 155.948 152.861 156.454 151.218C156.96 149.575 159.113 142.261 158.778 140.232C158.356 137.674 155.85 133.889 151.801 130.635L149.751 130.057Z" fill="#285173"/>
<path d="M137.945 129.139C137.945 129.139 140.288 136.301 141.475 145.474C142.661 154.647 137.831 197.224 134.592 206.889L122.042 204.956C122.042 204.956 124.743 174.861 128.411 169.384C132.078 163.907 133.245 159.061 129.286 147.63C125.327 136.198 131.022 130.537 131.022 130.537C131.022 130.537 136.845 129.258 137.945 129.139Z" fill="#285173"/>
<path d="M151.485 159.512L136.268 184.681L119.351 175.354L133.907 149.821L151.485 159.512Z" fill="#616161"/>
<path d="M149.651 160.378L136.136 182.731L121.111 174.448L134.039 151.771L149.651 160.378Z" fill="#E0CEC7"/>
<path d="M144.665 158.37L145.614 156.801L139.539 153.452L138.354 154.89L144.665 158.37Z" fill="#616161"/>
<path d="M143.94 176.228C143.94 176.228 143.248 176.231 142.944 176.091C142.944 176.091 142.413 175.796 142.022 175.609C141.898 175.55 141.788 175.501 141.713 175.477C141.403 175.374 140.69 175.238 140.017 174.791C139.345 174.346 136.962 171.712 136.962 171.712L138.087 170.077L138.912 168.404C138.912 168.404 143.915 168.712 144.592 169.058C144.659 169.093 144.722 169.129 144.779 169.167C145.323 169.513 145.575 169.989 145.838 170.201C145.935 170.28 146.837 171.123 146.805 171.482C146.762 171.98 146.521 172.308 146.206 172.473C146.206 172.473 146.076 173.445 145.575 173.898C145.575 173.898 145.485 174.799 144.693 175.193C144.693 175.193 144.496 176.097 143.94 176.228Z" fill="#EEA886"/>
<path d="M133.628 130.568C133.628 130.568 129.007 129.303 126.359 134.166C123.711 139.029 123.724 141.104 123.37 143.478C123.036 145.72 121.528 151.842 121.375 152.474C121.222 153.106 117.806 160.644 119.372 163.278C120.947 165.927 136.942 173.722 136.84 174.305C136.738 174.889 139.61 168.412 139.61 168.412C139.61 168.412 133.138 164.967 132.078 163.906C130.356 162.184 126.724 160.327 127.47 158.19C128.347 155.679 130.98 147.209 131.591 145.969C132.202 144.73 137.524 132.148 133.628 130.568Z" fill="#285173"/>
<path d="M148.741 105.484C148.741 105.484 156.969 107.953 152.503 121.511C148.036 135.068 136.801 119.939 137.976 111.679C139.151 103.418 148.741 105.484 148.741 105.484Z" fill="#EEA987"/>
<path d="M153.343 113.394C153.343 113.394 149.255 117.225 142.414 117.704C142.414 117.704 139.785 120.648 139.583 121.803C139.583 121.803 133.479 111.868 140.982 105.912C148.485 99.9563 156.101 110.94 153.343 113.394Z" fill="#0E2D3D"/>
<path d="M142.496 117.974C142.444 116.987 141.807 114.742 140.271 115.37C138.736 115.999 140.365 120.571 141.384 120.29C141.384 120.29 142.622 120.308 142.496 117.974Z" fill="#EEA987"/>
<path d="M147.936 126.898C147.888 127.413 147.834 127.982 147.786 128.565C147.786 128.565 144.154 128.359 141.727 123.201C141.885 123.426 144.546 127.158 147.936 126.898Z" fill="#A77860"/>
<path d="M57.8493 250.882C63.1246 247.34 69.2985 222.651 69.6667 207.946C69.8555 200.414 72.1871 197.276 74.2442 194.507C76.2107 191.86 77.9091 189.575 76.9198 184.326C75.0293 174.297 79.9998 169.967 80.0504 169.925L79.4749 169.298C79.2537 169.483 74.0773 173.949 76.0612 184.474C76.9856 189.378 75.4618 191.428 73.533 194.025C71.5088 196.749 68.9899 200.139 68.7947 207.926C68.3994 223.708 62.0875 247.018 57.3477 250.201L57.8493 250.882Z" fill="url(#paint4_linear_2004_3)"/>
<path d="M46.7921 243.681C46.294 242.603 45.7789 241.489 45.1956 240.313C42.182 234.238 39.5126 233.238 35.0898 231.58C34.0091 231.175 32.7842 230.716 31.4397 230.139C25.1045 227.42 26.331 223.414 27.4133 219.879C27.5646 219.384 27.7155 218.891 27.8465 218.403C28.4036 216.324 27.3333 215.281 25.7127 213.703C24.5085 212.529 23.0095 211.068 21.8542 208.762C20.5897 206.238 21.2341 204.884 21.9976 204.193C23.6048 202.738 27.3106 203.006 30.8096 204.83C31.8965 205.397 32.7913 206.292 33.7386 207.239C35.9691 209.47 38.7449 212.245 45.7655 212.277C49.7687 212.295 51.9614 212.822 53.097 214.041C54.3857 215.424 54.143 217.494 53.8065 220.36C53.6901 221.351 53.5583 222.474 53.4784 223.688C53.0008 230.929 57.4771 236.152 57.5213 236.203C60.1956 239.244 63.4905 245.553 62.0683 249.437C61.4724 251.064 60.1393 252.089 58.1062 252.482C57.2962 252.638 56.556 252.712 55.8756 252.712C50.9648 252.712 49.1679 248.824 46.7921 243.681ZM30.3911 205.562C27.2666 203.933 23.9161 203.604 22.5975 204.798C21.5954 205.705 22.0679 207.259 22.641 208.402C23.7338 210.584 25.1163 211.931 26.3358 213.12C28.0314 214.772 29.3705 216.077 28.6915 218.61C28.5582 219.107 28.4047 219.609 28.2504 220.113C27.1727 223.633 26.1549 226.958 31.7972 229.38C33.1225 229.948 34.3368 230.404 35.4085 230.805C39.873 232.478 42.8225 233.583 45.984 239.956C46.5723 241.142 47.0897 242.262 47.5901 243.345C50.3192 249.252 51.9664 252.817 57.933 251.665C59.6431 251.335 60.7573 250.493 61.2448 249.162C62.4978 245.74 59.4995 239.748 56.8523 236.738C56.6584 236.516 52.1074 231.218 52.6077 223.636C52.6891 222.402 52.8222 221.268 52.9395 220.267C53.2507 217.616 53.4754 215.701 52.4453 214.595C51.5034 213.585 49.442 213.127 45.7613 213.11C38.3697 213.077 35.4519 210.159 33.1073 207.815C32.1694 206.877 31.3592 206.067 30.3911 205.562Z" fill="url(#paint5_linear_2004_3)"/>
<path d="M58.0112 257.522L58.8825 257.478C58.8396 256.697 57.7405 238.272 49.9936 232.88C41.4946 226.964 38.8149 220.607 37.5389 216.339C36.0351 211.311 28.3812 209.967 28.056 209.912L27.9043 210.733C27.9784 210.745 35.3463 212.042 36.6998 216.568C38.0115 220.954 40.7632 227.486 49.4796 233.553C56.8943 238.714 58.0009 257.335 58.0112 257.522Z" fill="url(#paint6_linear_2004_3)"/>
<path d="M56.537 261.666C54.7142 260.799 54.7803 257.313 54.8803 252.038C55.0067 245.371 55.1799 236.241 51.5254 227.843C47.6431 218.922 51.1055 216.315 54.454 213.793C58.2044 210.969 61.7465 208.302 54.9482 196.262C51.8258 190.732 50.8344 186.991 51.8285 184.491C52.8108 182.019 55.5672 181.056 58.4855 180.036C63.5224 178.275 69.2316 176.28 68.4941 166.1C68.2681 162.979 68.6522 161.06 69.7033 160.06C70.8453 158.974 72.5281 159.091 74.4762 159.227C77.4198 159.433 80.7542 159.666 83.6588 156.047C83.9607 155.143 86.7378 147.071 90.0598 145.689C90.7573 145.399 91.441 145.402 92.092 145.7C94.3853 146.747 95.7161 147.989 96.1605 149.497C96.9338 152.121 94.9216 155.079 92.5917 158.505C88.9305 163.889 84.7803 169.99 89.0846 177.252C94.7754 186.853 91.7696 190.213 87.6095 194.863C85.2262 197.527 82.5248 200.547 80.7187 205.472C79.2663 209.433 81.744 213.21 84.14 216.862C87.1456 221.444 90.2535 226.182 83.7098 230.293C72.8909 237.09 62.2065 259.277 62.0999 259.5L62.0557 259.593L61.9721 259.655C59.9789 261.147 58.5279 261.859 57.4352 261.859C57.1048 261.859 56.8072 261.794 56.537 261.666ZM83.2304 229.597C89.0613 225.934 86.4381 221.935 83.4007 217.305C81.0117 213.663 78.3041 209.536 79.8954 205.197C81.7554 200.125 84.513 197.042 86.9462 194.322C91.0224 189.766 93.7152 186.756 88.3252 177.663C83.7604 169.961 88.2514 163.357 91.8602 158.051C94.0745 154.795 95.987 151.984 95.321 149.723C94.9483 148.46 93.7692 147.389 91.7158 146.452C91.2979 146.261 90.8702 146.261 90.4086 146.453C87.3263 147.735 84.4964 156.28 84.4681 156.366L84.4454 156.435L84.3996 156.493C81.1983 160.533 77.436 160.27 74.4124 160.058C72.6058 159.932 71.179 159.832 70.3191 160.65C69.4722 161.456 69.1599 163.219 69.3644 166.042C70.1473 176.847 63.8473 179.049 58.7852 180.818C55.9412 181.812 53.485 182.671 52.6442 184.786C51.7469 187.045 52.723 190.565 55.7161 195.866C62.8625 208.522 58.8626 211.535 54.9944 214.447C51.7588 216.884 48.7026 219.186 52.3311 227.523C56.0556 236.082 55.8808 245.313 55.7529 252.053C55.6655 256.654 55.5967 260.288 56.9261 260.92C57.7042 261.29 59.1924 260.665 61.3506 259.062C62.2157 257.267 72.4488 236.37 83.2304 229.597Z" fill="url(#paint7_linear_2004_3)"/>
<path d="M39.4596 164.96C44.9658 163.157 43.8219 173.291 46.1485 180.79C48.4751 188.288 72.0315 184.061 62.1436 202.837C52.2558 221.614 74.6489 209.117 67.9601 225.502C61.2713 241.887 67.3784 259.411 60.1079 254.953C52.8373 250.496 56.0233 229.863 48.4619 227.411C40.9005 224.959 39.6667 222.1 47.1531 215.435C54.6396 208.77 27.5358 202.153 34.2247 188.694C40.9137 175.236 33.0982 167.043 39.4596 164.96Z" fill="url(#paint8_linear_2004_3)"/>
<path d="M57.5738 253.877C58.2662 251.072 64.1798 226.387 58.6618 223.403C53.7988 220.774 53.9185 210.545 54.6772 200.886C55.3487 192.335 43.8493 188.339 43.3594 188.173L43.0676 188.958C43.1813 188.997 54.4288 192.909 53.8072 200.823C53.0282 210.743 52.9446 221.269 58.2319 224.128C62.4215 226.394 58.5641 246.233 56.7244 253.686L57.5738 253.877Z" fill="white"/>
<path d="M78.3482 245.087L70.4867 273.568H52.9182L45.0569 245.087H78.3482Z" fill="url(#paint9_linear_2004_3)"/>
<path d="M78.3482 245.087C78.3482 245.087 61.0416 248.19 61.0416 273.568H52.9185L45.0571 245.087H78.3482Z" fill="url(#paint10_linear_2004_3)"/>
<path opacity="0.95" d="M299.353 65.7391H247.481C242.733 65.7391 238.885 62.064 238.885 57.5306V14.5501C238.885 10.0165 242.734 6.34155 247.481 6.34155H299.353C304.101 6.34155 307.949 10.0167 307.949 14.5501V57.5306C307.949 62.0642 304.101 65.7391 299.353 65.7391Z" fill="url(#paint11_linear_2004_3)"/>
<path d="M275.894 54.5052H270.416V55.4739H275.894V54.5052Z" fill="#4598E6"/>
<path d="M278.109 1.13936C278.109 1.13936 282.522 3.45354 281.121 9.14401C279.72 14.8345 279.187 15.5858 280.326 17.8852C281.464 20.1847 282.465 29.8204 281.251 31.5832C280.036 33.346 267.726 22.9848 266.358 14.6958C264.99 6.40675 268.07 2.88631 269.161 1.57248C270.253 0.258657 274.216 -0.973654 278.109 1.13936Z" fill="#344052"/>
<path d="M286.395 48.1714H281.67C281.441 45.9458 281.23 44.3966 281.273 44.1673C281.343 43.789 276.571 31.8376 276.126 30.849C275.678 29.8631 273.928 27.2123 273.7 24.7159C273.469 22.2196 276.878 21.2116 276.878 21.2116C281.479 21.9987 283.037 28.0765 283.037 28.0765C283.037 28.0765 284.969 40.4008 285.947 43.8692C286.198 44.7582 286.334 46.3295 286.395 48.1714Z" fill="#EEA886"/>
<path d="M284.016 31.0447L276.98 33.8776C276.98 33.8776 270.513 18.5515 275.934 20.2627C281.339 21.9686 283.77 25.1757 284.016 31.0447Z" fill="#EB4747"/>
<path d="M282.451 38.2606C282.245 39.7821 281.404 45.1724 281.592 46.6278C281.624 46.8679 281.728 47.4203 281.884 48.1714H264.918C265.369 46.6332 265.78 45.2717 266.028 44.4794C266.853 41.8697 266.063 41.1711 265.647 39.0837C265.485 38.2663 264.915 36.7142 264.293 34.9606C264.085 34.3751 263.871 33.765 263.666 33.152C262.919 30.9429 262.573 28.684 262.359 27.3695C261.335 21.137 266.355 20.5376 266.355 20.5376C268.22 20.209 271.479 19.2479 271.479 19.2479L276.583 20.2615C276.583 20.2615 277.069 20.4355 277.777 20.9353C277.777 20.9353 277.78 20.9353 277.78 20.9382C278.122 21.1783 278.515 21.4932 278.928 21.8991C279.486 22.4459 280.597 24.0114 281.704 25.7318C282.043 26.2594 282.384 26.8004 282.705 27.3334C283.743 29.0482 284.481 30.4316 284.457 31.9919C284.437 33.5278 282.656 36.7392 282.451 38.2606Z" fill="#EB4747"/>
<path d="M276.583 20.2635C276.583 20.2635 279.781 25.4822 278.592 25.872C277.403 26.2615 271.135 24.9439 268.687 20.0134C268.687 20.0134 272.801 18.2278 276.583 20.2635Z" fill="#EEA886"/>
<path d="M276.126 22.6466C276.126 22.6466 273.285 23.7943 270.714 20.016C270.714 20.016 271.405 15.7257 269.944 13.2439C268.483 10.7629 276.33 16.2187 276.33 16.2187C276.33 16.2187 276.203 16.7303 276.071 17.4856C276.004 17.872 275.935 18.3217 275.882 18.7989C275.838 19.1964 275.804 19.6141 275.789 20.03C275.756 20.9951 275.828 21.9529 276.126 22.6466Z" fill="#EEA886"/>
<path d="M269.073 28.4916C268.488 31.3635 264.293 34.9614 264.293 34.9614C264.086 34.3744 263.872 33.7655 263.666 33.1533C266.561 31.3897 269.073 28.4916 269.073 28.4916Z" fill="#393D63"/>
<path d="M268.021 30.7772C267.755 31.8239 266.532 42.4248 266.665 42.7865C266.743 42.9938 267.335 45.446 267.928 48.1715H262.451C261.89 46.4153 261.558 44.957 261.639 44.1315C261.988 40.5555 260.719 29.1564 260.719 29.1564C260.719 29.1564 259.583 22.261 265.574 21.3995C265.574 21.3995 269.114 21.8442 269.328 24.3405C269.542 26.8393 268.287 29.7335 268.021 30.7772Z" fill="#EEA886"/>
<path d="M260.277 32.2417L267.713 33.9003C267.713 33.9003 273.612 22.9636 268.299 20.9668C262.7 18.8619 258.935 26.2759 260.277 32.2417Z" fill="#EB4747"/>
<path d="M277.421 1.74653C277.421 1.74653 283.884 4.01135 279.787 14.6607C275.692 25.31 267.33 12.8427 268.593 6.29863C269.856 -0.245146 277.421 1.74653 277.421 1.74653Z" fill="#EEA987"/>
<path d="M280.779 8.21951C280.779 8.21951 277.368 11.1269 271.895 11.2626C271.895 11.2626 270.615 14.2403 270.408 15.1542C270.408 15.1542 265.001 6.28757 271.218 1.80882C277.436 -2.66977 283.075 6.36194 280.779 8.21951Z" fill="#344052"/>
<path d="M272.633 11.9013C272.63 11.1127 272.211 9.29939 270.962 9.74528C269.712 10.1912 270.831 13.8959 271.655 13.7082C271.655 13.7082 272.641 13.7674 272.633 11.9013Z" fill="#EEA987"/>
<path d="M275.796 19.848C272.76 19.0459 271.585 16.2818 271.549 16.1894C274.019 19.2367 275.882 18.799 275.882 18.799C275.838 19.1966 275.834 19.4449 275.796 19.848Z" fill="#A77860"/>
<path d="M289.833 17.0906V18.0378H295.674V23.2725H296.666V17.0906H289.833ZM250.169 23.2725H251.161V18.0378H257.002V17.0906H250.169L250.169 23.2725ZM295.674 50.2836V55.5202H289.833V56.4674H296.666V50.2836H295.674ZM251.161 50.2836H250.169V56.4674H257.002V55.5202H251.161L251.161 50.2836Z" fill="#4598E6"/>
<path d="M186.308 98.8831H178.992V100.177H186.308V98.8831Z" fill="#4598E6"/>
<path d="M204.576 48.9083V50.1736H212.377V57.1657H213.702V48.9083H204.576ZM151.596 57.1655H152.921V50.1735H160.723V48.9081H151.596V57.1655ZM212.377 93.2438V100.239H204.576V101.504H213.702V93.244L212.377 93.2438ZM152.921 93.2438H151.596V101.504H160.723V100.238H152.921V93.2438Z" fill="#4598E6"/>
<path d="M346.084 146.121H339.895C339.782 145.885 339.69 145.679 339.615 145.515C337.778 141.374 328.315 131.88 328.315 131.88C328.315 131.88 328.315 131.885 328.315 131.9C328.315 131.9 328.31 131.905 328.31 131.911C328.31 131.911 328.31 131.916 328.31 131.921C328.304 131.936 328.299 131.946 328.293 131.962C328.288 131.982 328.283 132.008 328.272 132.039C328.267 132.055 328.261 132.075 328.261 132.09C328.256 132.106 328.25 132.116 328.245 132.132C327.857 133.515 325.95 140.407 324.997 146.122H283.12C283.023 145.592 282.91 145.088 282.781 144.62C282.398 143.2 282.14 141.796 281.973 140.484C281.967 140.418 281.957 140.356 281.951 140.289C281.919 140.047 281.892 139.806 281.87 139.569C281.51 135.979 281.779 133.227 281.8 132.95C281.682 133.191 280.836 136.154 279.727 139.811C279.118 141.817 278.429 144.033 277.745 146.122H267.856L280.265 111.934C280.54 111.728 283.761 110.242 286.109 109.172C288.506 108.081 291.399 106.481 294.011 105.113C295.346 104.414 296.607 103.781 297.7 103.303L297.867 103.231V103.226C299.672 102.439 300.873 101.919 300.873 101.919C300.873 101.919 300.873 101.919 300.878 101.919C300.921 101.914 301.207 101.888 301.659 101.847C304.18 101.616 312 100.916 314.618 100.773C314.834 100.757 315.017 100.752 315.156 100.747C315.275 100.742 315.367 100.742 315.42 100.747C315.749 100.767 317.365 101.302 319.481 102.074C319.562 102.099 319.643 102.13 319.724 102.161C319.826 102.197 319.923 102.233 320.025 102.269C320.208 102.336 320.397 102.403 320.586 102.475C320.963 102.619 321.356 102.763 321.749 102.912C321.884 102.964 322.024 103.015 322.164 103.066C326.402 104.671 331.261 106.662 332.413 107.454C333.178 107.973 335.553 112.247 338.306 117.535C341.269 126.597 344.893 139.672 346.084 146.121Z" fill="#DECBC4"/>
<path d="M315.353 99.5842C315.241 104.96 304.342 107.9 304.342 107.9C304.342 107.9 299.783 102.442 300.872 101.92C301.3 101.714 301.473 100.9 301.527 99.9864C301.576 99.1169 301.518 98.1576 301.465 97.5483C301.432 97.1681 301.402 96.9235 301.402 96.9235C301.402 96.9235 302.959 95.3544 304.94 93.4853C308.402 90.2164 313.161 86.029 313.169 87.6949C313.169 87.7831 313.156 87.8886 313.128 88.0106C312.292 91.7594 315.353 99.5842 315.353 99.5842Z" fill="#EEA886"/>
<path d="M311.155 91.7082C311.155 91.7082 311.155 91.7082 311.154 91.7092C311.133 91.7405 310.671 92.401 309.882 93.3488C308.208 95.3587 305.063 98.6602 301.527 99.9865C301.576 99.117 301.518 98.1577 301.465 97.5484C301.103 97.5397 300.741 97.4996 300.382 97.4239C301.352 95.8064 302.752 94.1103 302.752 94.1103L304.94 93.4853L311.155 91.7082Z" fill="#A77860"/>
<path d="M313.247 87.7675C312.304 89.7261 311.409 91.1458 311.155 91.7081C311.155 91.7081 311.155 91.7081 311.154 91.7091C310.989 92.0754 310.539 92.6725 309.881 93.3487C308.085 95.1965 304.746 97.6338 301.464 97.5483C301.102 97.5397 300.74 97.4995 300.382 97.4238C299.056 97.1472 297.491 96.5592 296.63 94.9493C289.831 82.2363 294.754 71.8407 294.754 71.8407C294.754 71.8407 313.346 66.8199 316.255 72.1646C318.296 75.9136 315.462 83.1653 313.247 87.7675Z" fill="#EEA886"/>
<path d="M294.754 71.8407C294.754 71.8407 293.027 71.7493 292.6 68.6231C292.178 65.5346 293.032 64.6786 293.032 64.6786C293.032 64.6786 300.707 61.6103 303.464 61.2113C306.22 60.8122 312.998 60.4291 314.586 62.1641C314.586 62.1641 318.446 61.3076 319.498 67.4268C321.166 77.1344 313.813 86.5608 313.813 86.5608C313.813 86.5608 313.876 80.2187 312.411 79.3785C310.947 78.5381 309.682 80.5366 309.682 80.5366L306.686 81.049C306.686 81.049 311.237 71.6662 305.778 71.3187C300.32 70.971 297.879 72.3847 294.754 71.8407Z" fill="#E8734D"/>
<path d="M309.765 78.0083C310.05 75.2142 315.341 74.1476 314.987 77.0758C314.633 80.0045 312.027 82.818 310.823 82.719C309.619 82.6201 309.548 80.138 309.765 78.0083Z" fill="#EEA886"/>
<path d="M340.736 117.797C339.012 112.525 337.52 108.354 336.858 107.901C335.7 107.109 326.522 104.697 322.165 103.066C322.025 103.015 321.885 102.964 321.75 102.912C321.357 102.763 320.964 102.619 320.587 102.475C320.398 102.403 320.21 102.336 320.026 102.269C319.924 102.233 319.827 102.197 319.725 102.161C319.644 102.13 319.563 102.1 319.483 102.074C319.477 102.079 319.472 102.089 319.461 102.094C319.073 102.511 317.059 104.697 314.651 107.968C310.148 114.078 304.283 123.979 305.183 133.119C305.473 136.051 305.829 140.263 306.427 144.99C306.47 145.365 306.518 145.741 306.572 146.121H326.888C327.136 141.173 327.578 134.657 328.245 132.131C328.251 132.116 328.256 132.106 328.262 132.09C328.262 132.075 328.267 132.054 328.273 132.039C328.278 132.013 328.289 131.987 328.294 131.962C328.299 131.946 328.305 131.936 328.31 131.921C328.31 131.915 328.31 131.91 328.31 131.91C328.31 131.905 328.316 131.9 328.316 131.9C328.316 131.9 333.233 139.24 333.486 146.121H346.273C345.648 139.728 343.693 126.844 340.736 117.797Z" fill="#3C4145"/>
<path d="M297.787 103.365C297.787 103.365 296.252 108.24 294.27 120.415C294.27 120.415 294.27 120.415 294.27 120.42C294.2 120.826 294.135 121.243 294.065 121.669C294.06 121.716 294.049 121.767 294.044 121.819C293.996 122.097 293.952 122.385 293.909 122.673C293.904 122.709 293.898 122.74 293.893 122.776C293.861 122.966 293.828 123.161 293.801 123.362C293.726 123.84 293.65 124.334 293.575 124.833C292.832 129.801 291.841 137.696 290.834 146.121H282.803C282.366 143.781 281.957 141.652 281.989 140.191C281.973 140.222 281.962 140.258 281.952 140.289C281.311 141.986 280.605 143.832 279.889 145.627C279.824 145.792 279.76 145.956 279.695 146.121H265.853L279.641 111.676C279.915 111.47 283.465 109.644 285.813 108.58C288.264 107.464 291.361 106.09 294.108 104.882C295.422 104.301 296.656 103.761 297.701 103.303L297.787 103.365Z" fill="#3C4145"/>
<path d="M316.461 115.41L311.155 118.27L313.423 120.477L308.446 146.121H306.572C305.882 140.937 305.489 136.282 305.182 133.119C303.798 118.985 318.567 103.046 319.482 102.074C320.193 102.331 320.958 102.614 321.75 102.912L316.461 115.41Z" fill="#51565C"/>
<path d="M297.868 103.231C297.868 103.231 295.886 109.408 293.58 124.833C292.837 129.796 291.841 137.697 290.834 146.121H290.053L289.024 121.891L291.55 119.278L289.304 116.599L294.108 104.882C295.422 104.301 296.656 103.761 297.701 103.303L297.868 103.231Z" fill="#51565C"/>
<path d="M319.749 102.134L315.353 99.5845C315.353 99.5845 315.23 101.887 304.342 107.901L307.434 116.217L319.749 102.134Z" fill="#F5E2D9"/>
<path d="M301.446 100.744C301.446 100.744 301.617 103.229 304.342 107.901L298.308 115.413L297.868 103.229L301.446 100.744Z" fill="#F5E2D9"/>
<path d="M304.359 107.901C304.359 107.901 305.528 112.368 305.107 113.618C305.107 113.618 302.536 114.512 300.687 113.395C300.687 113.395 301.996 110.268 304.359 107.901Z" fill="#D44040"/>
<path d="M302.941 123.089C301.708 131.113 301.708 139.229 302.166 146.121H297.011C296.941 145.149 296.876 144.136 296.812 143.076C295.853 127.189 301.735 112.993 301.735 112.993L304.358 112.365C304.358 112.365 303.512 119.386 302.941 123.089Z" fill="#D44040"/>
<path d="M282.156 132.99C281.959 136.802 281.989 140.187 281.989 140.187C281.989 140.187 281.989 140.189 281.989 140.19C281.987 140.208 281.983 140.312 281.975 140.482C281.967 140.417 281.958 140.354 281.95 140.29C281.311 141.987 280.603 143.832 279.889 145.628C279.724 143.546 279.681 141.607 279.729 139.811C280.015 129.122 283.536 123.517 283.536 123.517C282.728 125.38 282.341 129.377 282.156 132.99Z" fill="#2D3133"/>
<path d="M233.977 146.167L217.508 154.812L200.969 129.959L220.972 123.324L233.977 146.167Z" fill="#292C47"/>
<path d="M232.933 145.421L217.531 153.505L202.064 130.263L220.771 124.057L232.933 145.421Z" fill="white"/>
<path d="M238.573 141.074C238.573 141.074 235.707 139.765 234.449 139.081C233.19 138.396 229.954 137.457 229.692 137.234C229.431 137.011 220.098 136.461 219.532 135.995C218.966 135.528 218.416 137.088 220.835 137.594C223.253 138.1 226.62 139.337 226.804 140.239C226.988 141.142 224.319 141.356 224.049 142.1C223.779 142.843 224.125 142.677 224.507 142.836C224.89 142.996 227.681 141.519 228.909 141.938C230.136 142.357 232.013 141.777 232.954 142.084C233.895 142.392 238.47 143.862 238.47 143.862L238.573 141.074Z" fill="#EEA886"/>
<path d="M216.706 151.694C216.706 151.694 214.297 149.624 213.132 148.758C211.967 147.892 209.78 145.345 209.458 145.197C209.136 145.049 204.959 136.864 204.278 136.536C203.598 136.209 204.923 135.106 206.364 137.086C207.805 139.066 210.336 141.613 211.299 141.427C212.261 141.241 211.433 138.757 212.062 138.224C212.69 137.691 212.661 138.068 212.967 138.35C213.273 138.632 212.903 141.719 213.795 142.66C214.687 143.602 214.845 145.516 215.514 146.243C216.184 146.97 219.416 150.515 219.416 150.515L216.706 151.694Z" fill="#EEA886"/>
<path d="M268.567 262.318C268.567 262.318 269.088 265.771 269.153 266.289C269.218 266.808 274.948 265.984 274.948 265.984L275.412 261.873C275.412 261.873 269.283 261.831 268.567 262.318Z" fill="#424773"/>
<path d="M269.092 265.85C269.092 265.85 267.277 267.931 265.521 268.838C263.765 269.745 261.006 270.104 259.968 271.043C259.219 271.72 257.238 274.637 264.531 274.579C271.823 274.52 275.339 274.991 276.12 273.872C276.902 272.754 274.99 265.617 274.99 265.617C274.99 265.617 273.262 266.21 269.092 265.85Z" fill="#292C47"/>
<path d="M227.513 262.318C227.513 262.318 228.034 265.771 228.099 266.289C228.164 266.808 233.894 265.984 233.894 265.984L234.358 261.873C234.358 261.873 228.23 261.831 227.513 262.318Z" fill="#424773"/>
<path d="M228.038 265.85C228.038 265.85 226.223 267.931 224.467 268.838C222.711 269.745 216.25 270.489 215.212 271.428C214.462 272.106 213.216 274.834 223.476 274.579C230.766 274.397 234.285 274.991 235.066 273.872C235.847 272.754 233.935 265.617 233.935 265.617C233.935 265.617 232.308 266.25 228.038 265.85Z" fill="#292C47"/>
<path d="M263.823 173.598C263.823 173.598 269.206 181.766 268.805 189.149C268.403 196.533 270.757 204.594 271.566 212.307C272.467 220.906 276.157 241.262 276.291 245.862C276.425 250.461 275.718 265.148 275.718 265.148L268.332 265.31C268.332 265.31 262.128 229.722 260.522 226.09C258.916 222.459 250.948 196.572 250.68 193.667C250.413 190.762 263.823 173.598 263.823 173.598Z" fill="#292C47"/>
<path d="M235.481 174.704C235.481 174.704 231.424 194.941 230.889 199.46C230.353 203.979 229.996 221.33 229.728 224.154C229.46 226.978 227.943 261.114 226.515 265.31H235.957C235.957 265.31 243.206 240.495 243.206 228.754C243.206 217.013 248.806 203.229 252.421 195.482C256.035 187.736 264.31 187.552 266.532 173.18C266.532 173.18 238.49 170.146 235.481 174.704Z" fill="#292C47"/>
<path d="M254.838 104.924C254.838 104.924 247.612 102.347 244.28 107.6C240.948 112.853 241.269 123.369 244.912 124.662C248.554 125.955 254.026 125.279 255.891 121.992C257.755 118.705 259.439 113.954 259.358 110.778C259.277 107.602 256.736 105.841 254.838 104.924Z" fill="#EEA886"/>
<path d="M245.696 124.903C245.696 124.903 245.997 126.766 245.5 127.684C245.003 128.601 254.862 128.625 254.862 128.625C254.862 128.625 255.662 123.633 257.18 119.415C258.697 115.197 245.696 124.903 245.696 124.903Z" fill="#EEA886"/>
<path d="M257.18 119.415C257.18 119.415 256.5 120.487 253.722 120.071C250.944 119.655 247.556 116.126 246.396 115.739C245.236 115.352 245.225 114.701 245.225 114.701L244.5 115.714L243.268 115.788C243.268 115.788 244.391 112.632 242.696 111.344C241.001 110.057 244.455 101.127 253.363 104.1C253.363 104.1 260.205 105.901 259.956 109.617C259.707 113.332 258.711 117.565 257.18 119.415Z" fill="#3A3F47"/>
<path d="M244.915 127.573C244.915 127.573 244.946 125.819 245.778 125.651C246.611 125.483 254.966 124.716 255.987 125.1V127.142C255.987 127.142 254.019 128.299 244.915 127.573Z" fill="#E2D2CA"/>
<path d="M245.409 113.349C245.565 112.726 247.224 110.945 247.86 112.852C248.495 114.759 246.9 117.324 246.01 117.105C245.12 116.885 245.014 114.93 245.409 113.349Z" fill="#EEA886"/>
<path d="M211.756 148.292C211.76 148.29 211.764 148.29 211.77 148.291C211.712 148.315 211.703 148.317 211.756 148.292Z" fill="#323657"/>
<path d="M269.896 193.057C269.896 193.057 265.465 194.303 257.908 195.098C250.35 195.893 231.468 194.811 231.35 193.958C231.23 193.105 235.411 162.212 235.173 160.62C234.936 159.03 234.808 153.361 234.808 153.361C234.715 154.914 233.057 161.259 231.057 164.717C230.334 165.967 227.91 169.884 226.741 168.993C221.084 164.68 212.325 148.428 211.77 148.291C212.237 148.097 215.921 146.477 216.438 146.312C216.891 146.168 220.971 150.294 223.444 152.852C224.547 153.992 225.329 154.82 225.329 154.82C226.043 153.286 228.644 143.622 229.452 140.277C231.275 132.734 230.995 132.42 230.995 132.42C236.523 130.823 244.915 127.573 244.915 127.573L255.988 127.142C255.988 127.142 266.15 129.278 270.152 131.005C270.532 131.168 270.534 139.662 271.575 141.889L268.257 148.574C268.257 148.574 266.341 161.816 265.943 167.705C265.761 170.409 269.896 193.057 269.896 193.057Z" fill="#FFDF69"/>
<path d="M272.035 152.917C271.746 153.808 270.434 154.561 269.581 154.89C269.035 155.101 268.424 155.169 267.808 155.06L267.374 154.984V154.983L259.786 153.64C259.786 153.64 258.126 135.38 270.153 131.005C270.47 131.104 274.691 144.741 272.035 152.917Z" fill="#FFDF69"/>
<path d="M269.581 154.889V154.89C269.035 155.101 268.423 155.169 267.808 155.06L267.374 154.984V154.983L268.123 145.652L269.581 154.889Z" fill="#AB9546"/>
<path d="M225.329 154.82L224.402 158.571C224.402 158.571 223.395 154.807 223.444 152.852C224.546 153.992 225.329 154.82 225.329 154.82Z" fill="#AB9546"/>
<path d="M256.897 105.544C256.897 105.544 266.367 104.412 257.057 119.518L256.897 105.544Z" fill="#3A3F47"/>
<path d="M208.583 128.625L207.62 127.046L215.203 124.548L216.165 126.119L208.583 128.625Z" fill="#292C47"/>
<g opacity="0.95">
<path d="M353.206 60.9438H358.578L356.934 57.6871H351.562L353.206 60.9438Z" fill="url(#paint12_linear_2004_3)"/>
<path d="M350.692 60.9438H351.972L350.328 57.6871H349.048L350.692 60.9438Z" fill="url(#paint13_linear_2004_3)"/>
<path d="M332.133 57.065H353.885L353.163 55.4368H331.411L332.133 57.065Z" fill="url(#paint14_linear_2004_3)"/>
</g>
<path d="M215.315 5.14292H207.102C206.824 5.14292 206.6 4.92832 206.6 4.66351V2.96966C206.6 2.70485 206.825 2.49042 207.102 2.49042H215.315C215.593 2.49042 215.817 2.70502 215.817 2.96966V4.66351C215.817 4.92832 215.593 5.14292 215.315 5.14292Z" fill="url(#paint15_linear_2004_3)"/>
<path d="M215.315 11.5039H207.102C206.824 11.5039 206.6 11.2891 206.6 11.0245V9.33079C206.6 9.06582 206.824 8.85138 207.102 8.85138H215.315C215.592 8.85138 215.817 9.06599 215.817 9.33079V11.0245C215.817 11.2891 215.592 11.5039 215.315 11.5039Z" fill="url(#paint16_linear_2004_3)"/>
<path d="M215.315 17.8648H207.102C206.824 17.8648 206.6 17.6501 206.6 17.3853V15.6916C206.6 15.4268 206.824 15.2122 207.102 15.2122H215.315C215.592 15.2122 215.817 15.4269 215.817 15.6916V17.3853C215.817 17.6501 215.592 17.8648 215.315 17.8648Z" fill="url(#paint17_linear_2004_3)"/>
<path d="M221.744 5.14286H220.125C219.848 5.14286 219.623 4.92826 219.623 4.66345V2.9696C219.623 2.70479 219.848 2.49036 220.125 2.49036H221.744C222.021 2.49036 222.246 2.70496 222.246 2.9696V4.66345C222.246 4.92826 222.021 5.14286 221.744 5.14286Z" fill="url(#paint18_linear_2004_3)"/>
<path d="M221.744 11.5039H220.125C219.848 11.5039 219.623 11.2891 219.623 11.0245V9.33079C219.623 9.06582 219.848 8.85138 220.125 8.85138H221.744C222.021 8.85138 222.246 9.06599 222.246 9.33079V11.0245C222.246 11.2891 222.021 11.5039 221.744 11.5039Z" fill="url(#paint19_linear_2004_3)"/>
<path d="M221.744 17.8648H220.125C219.848 17.8648 219.623 17.6501 219.623 17.3853V15.6916C219.623 15.4268 219.848 15.2122 220.125 15.2122H221.744C222.021 15.2122 222.246 15.4269 222.246 15.6916V17.3853C222.246 17.6501 222.021 17.8648 221.744 17.8648Z" fill="url(#paint20_linear_2004_3)"/>
<path d="M186.057 148.397H195.7L192.748 142.551H183.106L186.057 148.397Z" fill="url(#paint21_linear_2004_3)"/>
<path d="M181.545 148.397H183.843L180.891 142.551H178.594L181.545 148.397Z" fill="url(#paint22_linear_2004_3)"/>
<defs>
<linearGradient id="paint0_linear_2004_3" x1="189.364" y1="200.502" x2="182.668" y2="73.415" gradientUnits="userSpaceOnUse">
<stop stop-color="#D1D7E0"/>
<stop offset="1" stop-color="#EBEBFF"/>
</linearGradient>
<linearGradient id="paint1_linear_2004_3" x1="309.443" y1="236.093" x2="309.443" y2="105.29" gradientUnits="userSpaceOnUse">
<stop stop-color="#D1D7E0"/>
<stop offset="1" stop-color="#EBEBFF"/>
</linearGradient>
<linearGradient id="paint2_linear_2004_3" x1="-1.78217e-05" y1="273.887" x2="353.13" y2="273.887" gradientUnits="userSpaceOnUse">
<stop offset="0.0052" stop-color="#1A2257"/>
<stop offset="1" stop-color="#48C9B6"/>
</linearGradient>
<linearGradient id="paint3_linear_2004_3" x1="182.65" y1="155.319" x2="182.65" y2="59.6754" gradientUnits="userSpaceOnUse">
<stop stop-color="#D1D7E0"/>
<stop offset="1" stop-color="#EBEBFF"/>
</linearGradient>
<linearGradient id="paint4_linear_2004_3" x1="80.0501" y1="210.09" x2="57.3474" y2="210.09" gradientUnits="userSpaceOnUse">
<stop stop-color="#3076A1"/>
<stop offset="1" stop-color="#48C9B6"/>
</linearGradient>
<linearGradient id="paint5_linear_2004_3" x1="62.4109" y1="227.986" x2="21.138" y2="227.986" gradientUnits="userSpaceOnUse">
<stop stop-color="#3076A1"/>
<stop offset="1" stop-color="#48C9B6"/>
</linearGradient>
<linearGradient id="paint6_linear_2004_3" x1="58.8824" y1="233.717" x2="27.9043" y2="233.717" gradientUnits="userSpaceOnUse">
<stop stop-color="#3076A1"/>
<stop offset="1" stop-color="#48C9B6"/>
</linearGradient>
<linearGradient id="paint7_linear_2004_3" x1="96.3289" y1="203.667" x2="49.8099" y2="203.667" gradientUnits="userSpaceOnUse">
<stop stop-color="#3076A1"/>
<stop offset="1" stop-color="#48C9B6"/>
</linearGradient>
<linearGradient id="paint8_linear_2004_3" x1="68.6304" y1="252.157" x2="43.7124" y2="173.875" gradientUnits="userSpaceOnUse">
<stop stop-color="#3076A1"/>
<stop offset="1" stop-color="#48C9B6"/>
</linearGradient>
<linearGradient id="paint9_linear_2004_3" x1="47.675" y1="302.831" x2="60.0801" y2="246.832" gradientUnits="userSpaceOnUse">
<stop stop-color="#C9C4C1"/>
<stop offset="1" stop-color="#FFF6DE"/>
</linearGradient>
<linearGradient id="paint10_linear_2004_3" x1="45.057" y1="259.328" x2="78.3482" y2="259.328" gradientUnits="userSpaceOnUse">
<stop stop-color="#C9C4C1"/>
<stop offset="1" stop-color="#FFF6DE"/>
</linearGradient>
<linearGradient id="paint11_linear_2004_3" x1="273.417" y1="74.46" x2="273.417" y2="20.5823" gradientUnits="userSpaceOnUse">
<stop stop-color="#D1D7E0"/>
<stop offset="1" stop-color="#EBEBFF"/>
</linearGradient>
<linearGradient id="paint12_linear_2004_3" x1="351.562" y1="59.3154" x2="358.578" y2="59.3154" gradientUnits="userSpaceOnUse">
<stop stop-color="#D1D7E0"/>
<stop offset="1" stop-color="#EBEBFF"/>
</linearGradient>
<linearGradient id="paint13_linear_2004_3" x1="349.048" y1="59.3154" x2="351.972" y2="59.3154" gradientUnits="userSpaceOnUse">
<stop stop-color="#D1D7E0"/>
<stop offset="1" stop-color="#EBEBFF"/>
</linearGradient>
<linearGradient id="paint14_linear_2004_3" x1="331.411" y1="56.251" x2="353.885" y2="56.251" gradientUnits="userSpaceOnUse">
<stop stop-color="#D1D7E0"/>
<stop offset="1" stop-color="#EBEBFF"/>
</linearGradient>
<linearGradient id="paint15_linear_2004_3" x1="206.6" y1="3.81655" x2="215.817" y2="3.81655" gradientUnits="userSpaceOnUse">
<stop stop-color="#D1D7E0"/>
<stop offset="1" stop-color="#EBEBFF"/>
</linearGradient>
<linearGradient id="paint16_linear_2004_3" x1="206.6" y1="10.1775" x2="215.817" y2="10.1775" gradientUnits="userSpaceOnUse">
<stop stop-color="#D1D7E0"/>
<stop offset="1" stop-color="#EBEBFF"/>
</linearGradient>
<linearGradient id="paint17_linear_2004_3" x1="206.6" y1="16.5384" x2="215.817" y2="16.5384" gradientUnits="userSpaceOnUse">
<stop stop-color="#D1D7E0"/>
<stop offset="1" stop-color="#EBEBFF"/>
</linearGradient>
<linearGradient id="paint18_linear_2004_3" x1="219.623" y1="3.81649" x2="222.246" y2="3.81649" gradientUnits="userSpaceOnUse">
<stop stop-color="#D1D7E0"/>
<stop offset="1" stop-color="#EBEBFF"/>
</linearGradient>
<linearGradient id="paint19_linear_2004_3" x1="219.623" y1="10.1775" x2="222.246" y2="10.1775" gradientUnits="userSpaceOnUse">
<stop stop-color="#D1D7E0"/>
<stop offset="1" stop-color="#EBEBFF"/>
</linearGradient>
<linearGradient id="paint20_linear_2004_3" x1="219.623" y1="16.5384" x2="222.246" y2="16.5384" gradientUnits="userSpaceOnUse">
<stop stop-color="#D1D7E0"/>
<stop offset="1" stop-color="#EBEBFF"/>
</linearGradient>
<linearGradient id="paint21_linear_2004_3" x1="183.106" y1="145.474" x2="195.7" y2="145.474" gradientUnits="userSpaceOnUse">
<stop stop-color="#D1D7E0"/>
<stop offset="1" stop-color="#EBEBFF"/>
</linearGradient>
<linearGradient id="paint22_linear_2004_3" x1="178.594" y1="145.474" x2="183.843" y2="145.474" gradientUnits="userSpaceOnUse">
<stop stop-color="#D1D7E0"/>
<stop offset="1" stop-color="#EBEBFF"/>
</linearGradient>
</defs>
</svg>
